<svg width="25" height="25" viewBox="0 0 25 25" fill="none" xmlns="http://www.w3.org/2000/svg">
<g clip-path="url(#clip0_46_564)">
<path d="M24.459 12.5C24.459 5.87258 19.0864 0.5 12.459 0.5C5.83156 0.5 0.458984 5.87258 0.458984 12.5C0.458984 18.4895 4.84719 23.454 10.584 24.3542V15.9688H7.53711V12.5H10.584V9.85625C10.584 6.84875 12.3755 5.1875 15.1166 5.1875C16.4291 5.1875 17.8027 5.42188 17.8027 5.42188V8.375H16.2896C14.799 8.375 14.334 9.30008 14.334 10.25V12.5H17.6621L17.1301 15.9688H14.334V24.3542C20.0708 23.454 24.459 18.4895 24.459 12.5Z" fill="#11AFF9"/>
</g>
<defs>
<clipPath id="clip0_46_564">
<rect width="24" height="24" fill="white" transform="translate(0.458984 0.5)"/>
</clipPath>
</defs>
</svg>
