<svg width="25" height="25" viewBox="0 0 25 25" fill="none" xmlns="http://www.w3.org/2000/svg">
<g clip-path="url(#clip0_46_568)">
<path fill-rule="evenodd" clip-rule="evenodd" d="M12.459 0.5C5.83138 0.5 0.458984 5.8808 0.458984 12.5204C0.458984 17.8304 3.89698 22.3364 8.66578 23.9252C9.26578 24.0356 9.48418 23.6648 9.48418 23.3456C9.48418 23.0612 9.47459 22.304 9.46859 21.302C6.13019 22.028 5.42578 19.6904 5.42578 19.6904C4.88098 18.3008 4.09378 17.9312 4.09378 17.9312C3.00418 17.1872 4.17658 17.2016 4.17658 17.2016C5.38018 17.2856 6.01378 18.44 6.01378 18.44C7.08419 20.276 8.82298 19.7456 9.50578 19.4384C9.61618 18.662 9.92579 18.1328 10.269 17.8328C7.60498 17.5292 4.80298 16.4972 4.80298 11.8916C4.80298 10.58 5.27098 9.506 6.03778 8.666C5.91418 8.3624 5.50258 7.1396 6.15539 5.486C6.15539 5.486 7.16338 5.162 9.45538 6.7172C10.4343 6.45022 11.4443 6.31423 12.459 6.3128C13.479 6.3176 14.505 6.4508 15.4638 6.7172C17.7546 5.162 18.7602 5.4848 18.7602 5.4848C19.4154 7.1396 19.0026 8.3624 18.8802 8.666C19.6482 9.506 20.1138 10.58 20.1138 11.8916C20.1138 16.5092 17.307 17.5256 14.6346 17.8232C15.0654 18.194 15.4482 18.9272 15.4482 20.0492C15.4482 21.6548 15.4338 22.952 15.4338 23.3456C15.4338 23.6672 15.6498 24.0416 16.2594 23.924C18.6489 23.1225 20.7262 21.5904 22.1976 19.5441C23.6689 17.4977 24.46 15.0408 24.459 12.5204C24.459 5.8808 19.0854 0.5 12.459 0.5Z" fill="#11AFF9"/>
</g>
<defs>
<clipPath id="clip0_46_568">
<rect width="24" height="24" fill="white" transform="translate(0.458984 0.5)"/>
</clipPath>
</defs>
</svg>
