<svg width="25" height="25" viewBox="0 0 25 25" fill="none" xmlns="http://www.w3.org/2000/svg">
<g clip-path="url(#clip0_46_562)">
<path fill-rule="evenodd" clip-rule="evenodd" d="M17.3016 7.04769C16.0626 5.86599 14.4091 5.22223 12.6982 5.24868C9.56762 5.24868 6.9088 7.36074 5.96078 10.2047V10.2048C5.45812 11.6952 5.45812 13.309 5.96078 14.7993H5.96518C6.91759 17.6389 9.57201 19.751 12.7026 19.751C14.3187 19.751 15.706 19.3376 16.7813 18.6076V18.6046C18.0468 17.7668 18.911 16.4484 19.18 14.9581H12.6982V10.3371H24.017C24.1581 11.1396 24.2243 11.9597 24.2243 12.7755C24.2243 16.4253 22.9199 19.5111 20.6503 21.6011L20.6527 21.6029C18.6641 23.4372 15.9347 24.4998 12.6982 24.4998C8.16103 24.4998 4.01184 21.9424 1.97473 17.8903V17.8902C0.272742 14.4995 0.272746 10.5046 1.97474 7.11386H1.97477L1.97473 7.11383C4.01184 3.05725 8.16103 0.499832 12.6982 0.499832C15.6789 0.464557 18.5582 1.58453 20.7276 3.62164L17.3016 7.04769Z" fill="#11AFF9"/>
</g>
<defs>
<clipPath id="clip0_46_562">
<rect width="24" height="24" fill="white" transform="translate(0.458984 0.5)"/>
</clipPath>
</defs>
</svg>
