<svg width="25" height="25" viewBox="0 0 25 25" fill="none" xmlns="http://www.w3.org/2000/svg">
<g clip-path="url(#clip0_46_570)">
<path fill-rule="evenodd" clip-rule="evenodd" d="M24.459 12.5C24.459 19.1274 19.0864 24.5 12.459 24.5C5.83157 24.5 0.458984 19.1274 0.458984 12.5C0.458984 5.87258 5.83157 0.5 12.459 0.5C19.0864 0.5 24.459 5.87258 24.459 12.5ZM12.8891 9.35893C11.722 9.8444 9.38924 10.8492 5.891 12.3733C5.32294 12.5992 5.02536 12.8202 4.99827 13.0363C4.95249 13.4015 5.40982 13.5453 6.03258 13.7411C6.11729 13.7678 6.20506 13.7954 6.29504 13.8246C6.90774 14.0238 7.73193 14.2568 8.16039 14.266C8.54905 14.2744 8.98283 14.1142 9.46175 13.7853C12.7303 11.579 14.4175 10.4638 14.5234 10.4398C14.5981 10.4228 14.7017 10.4015 14.7719 10.4638C14.842 10.5262 14.8351 10.6443 14.8277 10.676C14.7824 10.8691 12.9872 12.5381 12.0582 13.4018C11.7686 13.671 11.5632 13.862 11.5212 13.9056C11.4271 14.0033 11.3312 14.0958 11.2391 14.1846C10.6699 14.7333 10.243 15.1448 11.2627 15.8168C11.7527 16.1397 12.1448 16.4067 12.536 16.6731C12.9633 16.9641 13.3894 17.2543 13.9407 17.6157C14.0812 17.7077 14.2153 17.8034 14.346 17.8965C14.8432 18.251 15.2899 18.5694 15.8417 18.5186C16.1623 18.4891 16.4936 18.1876 16.6618 17.2884C17.0593 15.1631 17.8407 10.5585 18.0213 8.66097C18.0371 8.49473 18.0172 8.28197 18.0013 8.18857C17.9853 8.09518 17.9519 7.96211 17.8305 7.8636C17.6867 7.74694 17.4647 7.72234 17.3655 7.72408C16.9141 7.73203 16.2217 7.97282 12.8891 9.35893Z" fill="#11AFF9"/>
</g>
<defs>
<clipPath id="clip0_46_570">
<rect width="24" height="24" fill="white" transform="translate(0.458984 0.5)"/>
</clipPath>
</defs>
</svg>
