<svg width="54" height="54" viewBox="0 0 54 54" fill="none" xmlns="http://www.w3.org/2000/svg">
<path fill-rule="evenodd" clip-rule="evenodd" d="M44.4706 30.3565C46.5464 32.4323 49.912 32.4323 51.9879 30.3565C54.0637 28.2807 54.0637 24.9152 51.9879 22.8394L30.7258 1.57784C28.65 -0.497951 25.2844 -0.497951 23.2086 1.57784L1.94653 22.8394C-0.129311 24.9152 -0.129311 28.2807 1.94653 30.3565C4.02236 32.4323 7.38796 32.4323 9.46379 30.3565L26.9672 12.8535L44.4706 30.3565ZM15.8287 39.8862L26.8867 28.8285L37.9447 39.8862L26.8867 50.9439L15.8287 39.8862ZM13.0003 39.8862L14.4145 38.472L25.4725 27.4143L26.8867 26.0001L28.3009 27.4143L39.3589 38.472L40.7731 39.8862L39.3589 41.3004L28.3009 52.3581L26.8867 53.7723L25.4725 52.3581L14.4145 41.3004L13.0003 39.8862Z" fill="white"/>
</svg>
