<svg width="54" height="55" viewBox="0 0 54 55" fill="none" xmlns="http://www.w3.org/2000/svg">
<path fill-rule="evenodd" clip-rule="evenodd" d="M38.5385 14.3812L27.4802 25.4386L16.4218 14.3812L27.4802 3.3239L38.5385 14.3812ZM41.3671 14.3812L39.9528 15.7954L28.8945 26.8527L27.4802 28.2669L26.0659 26.8527L15.0076 15.7954L13.5933 14.3812L15.0076 12.9671L26.0659 1.90976L27.4802 0.495605L28.8945 1.90976L39.9528 12.9671L41.3671 14.3812ZM9.45955 24.3515C7.38357 22.2757 4.01775 22.2757 1.94177 24.3515C-0.134203 26.4273 -0.134208 29.7928 1.94177 31.8686L23.2052 53.1302C25.2812 55.206 28.647 55.206 30.723 53.1302L51.9865 31.8686C54.0625 29.7928 54.0625 26.4273 51.9865 24.3515C49.9105 22.2757 46.5447 22.2757 44.4687 24.3515L26.9641 41.8545L9.45955 24.3515Z" fill="white"/>
</svg>
