<svg width="54" height="55" viewBox="0 0 54 55" fill="none" xmlns="http://www.w3.org/2000/svg">
<path fill-rule="evenodd" clip-rule="evenodd" d="M38.5371 14.3796L27.4782 25.4364L16.4193 14.3796L27.4782 3.32279L38.5371 14.3796ZM41.3658 14.3796L39.9514 15.7937L28.8925 26.8505L27.4782 28.2646L26.0639 26.8505L15.005 15.7937L13.5907 14.3796L15.005 12.9655L26.0639 1.90871L27.4782 0.494629L28.8925 1.90871L39.9514 12.9655L41.3658 14.3796ZM9.45517 24.3499C7.37899 22.2741 4.01285 22.2741 1.93667 24.3499C-0.139501 26.4257 -0.139506 29.7912 1.93667 31.867L23.2022 53.1285C25.2784 55.2043 28.6445 55.2043 30.7207 53.1285L51.9862 31.867C54.0624 29.7912 54.0624 26.4257 51.9862 24.3499C49.91 22.2741 46.5439 22.2741 44.4677 24.3499L26.9614 41.8529L9.45517 24.3499Z" fill="white"/>
</svg>
