<svg width="54" height="54" viewBox="0 0 54 54" fill="none" xmlns="http://www.w3.org/2000/svg">
<path fill-rule="evenodd" clip-rule="evenodd" d="M44.4698 30.3565C46.5458 32.4323 49.9117 32.4323 51.9877 30.3565C54.0637 28.2807 54.0637 24.9152 51.9877 22.8394L30.7237 1.57784C28.6477 -0.497951 25.2818 -0.497951 23.2058 1.57784L1.94179 22.8394C-0.134241 24.9152 -0.134242 28.2807 1.94179 30.3565C4.01781 32.4323 7.38372 32.4323 9.45974 30.3565L26.9648 12.8535L44.4698 30.3565ZM15.8251 39.8862L26.8836 28.829L37.9421 39.8862L26.8836 50.9434L15.8251 39.8862ZM12.9966 39.8862L14.4109 38.4721L25.4693 27.4149L26.8836 26.0008L28.2979 27.4149L39.3564 38.4721L40.7707 39.8862L39.3564 41.3004L28.2979 52.3576L26.8836 53.7717L25.4693 52.3576L14.4109 41.3004L12.9966 39.8862Z" fill="white"/>
</svg>
